<svg width="1200" height="620" viewBox="0 0 1200 620" fill="none" xmlns="http://www.w3.org/2000/svg">
  <defs>
    <linearGradient id="roof" x1="0" y1="0" x2="0" y2="1">
      <stop offset="0" stop-color="#9fb1c0"/>
      <stop offset="1" stop-color="#d9e1e7"/>
    </linearGradient>
    <linearGradient id="wallL" x1="0" y1="0" x2="1" y2="1">
      <stop offset="0" stop-color="#8ca0af"/>
      <stop offset="1" stop-color="#5d7180"/>
    </linearGradient>
    <linearGradient id="wallR" x1="0" y1="0" x2="1" y2="1">
      <stop offset="0" stop-color="#738795"/>
      <stop offset="1" stop-color="#4e6472"/>
    </linearGradient>
    <linearGradient id="floor" x1="0" y1="0" x2="0" y2="1">
      <stop offset="0" stop-color="#eef3f7"/>
      <stop offset="1" stop-color="#b8c5cf"/>
    </linearGradient>
    <linearGradient id="machine" x1="0" y1="0" x2="1" y2="1">
      <stop offset="0" stop-color="#fafcfe"/>
      <stop offset="1" stop-color="#c7d3dc"/>
    </linearGradient>
    <linearGradient id="window" x1="0" y1="0" x2="0" y2="1">
      <stop offset="0" stop-color="#dff4ff"/>
      <stop offset="1" stop-color="#93b3c7"/>
    </linearGradient>
    <filter id="softShadow" x="-20%" y="-20%" width="140%" height="140%">
      <feDropShadow dx="0" dy="8" stdDeviation="10" flood-color="#203747" flood-opacity="0.16"/>
    </filter>
  </defs>

  <rect width="1200" height="620" fill="#f8fafc"/>

  <path d="M145 0H1055L1200 160H0L145 0Z" fill="url(#roof)"/>
  <path d="M0 160H180V620H0V160Z" fill="url(#wallL)"/>
  <path d="M1020 160H1200V620H1020V160Z" fill="url(#wallR)"/>
  <path d="M180 160H1020V620H180V160Z" fill="#e7edf2"/>

  <g opacity="0.9">
    <rect x="90" y="50" width="92" height="360" fill="#556b79"/>
    <rect x="222" y="50" width="92" height="360" fill="#617886"/>
    <rect x="886" y="50" width="92" height="360" fill="#607684"/>
    <rect x="1018" y="50" width="92" height="360" fill="#556a78"/>
  </g>

  <g opacity="0.55">
    <rect x="336" y="46" width="54" height="190" fill="url(#window)"/>
    <rect x="404" y="46" width="54" height="190" fill="url(#window)"/>
    <rect x="472" y="46" width="54" height="190" fill="url(#window)"/>
    <rect x="674" y="46" width="54" height="190" fill="url(#window)"/>
    <rect x="742" y="46" width="54" height="190" fill="url(#window)"/>
    <rect x="810" y="46" width="54" height="190" fill="url(#window)"/>
  </g>

  <rect x="402" y="114" width="396" height="36" rx="4" fill="#f0b318"/>
  <rect x="426" y="150" width="18" height="72" fill="#374650"/>
  <rect x="756" y="150" width="18" height="72" fill="#374650"/>

  <path d="M250 280L950 280L1100 620H100L250 280Z" fill="url(#floor)"/>

  <g opacity="0.85">
    <path d="M596 280L622 280L760 620L735 620L596 280Z" fill="#fff3a1"/>
    <path d="M578 280L604 280L465 620L440 620L578 280Z" fill="#fff3a1"/>
  </g>

  <g stroke="#d0dce4" stroke-width="3" opacity="0.6">
    <path d="M264 620L600 280L936 620"/>
    <path d="M340 620L600 280L860 620"/>
    <path d="M424 620L600 280L776 620"/>
  </g>

  <g filter="url(#softShadow)">
    <g transform="translate(26 282)">
      <rect x="0" y="0" width="168" height="194" rx="10" fill="url(#machine)"/>
      <rect x="18" y="18" width="68" height="56" rx="8" fill="#d7e2e9"/>
      <rect x="100" y="28" width="44" height="20" rx="10" fill="#8ea2b0"/>
      <rect x="20" y="120" width="126" height="54" rx="6" fill="#e8eef2"/>
      <rect x="26" y="130" width="114" height="34" rx="5" fill="#b8c6cf"/>
    </g>
    <g transform="translate(198 300) scale(0.92)">
      <rect x="0" y="0" width="168" height="194" rx="10" fill="url(#machine)"/>
      <rect x="18" y="18" width="68" height="56" rx="8" fill="#d7e2e9"/>
      <rect x="100" y="28" width="44" height="20" rx="10" fill="#8ea2b0"/>
      <rect x="20" y="120" width="126" height="54" rx="6" fill="#e8eef2"/>
      <rect x="26" y="130" width="114" height="34" rx="5" fill="#b8c6cf"/>
    </g>
    <g transform="translate(930 282)">
      <rect x="0" y="0" width="168" height="194" rx="10" fill="url(#machine)"/>
      <rect x="18" y="18" width="68" height="56" rx="8" fill="#d7e2e9"/>
      <rect x="100" y="28" width="44" height="20" rx="10" fill="#8ea2b0"/>
      <rect x="20" y="120" width="126" height="54" rx="6" fill="#e8eef2"/>
      <rect x="26" y="130" width="114" height="34" rx="5" fill="#b8c6cf"/>
    </g>
    <g transform="translate(776 298) scale(0.94)">
      <rect x="0" y="0" width="168" height="194" rx="10" fill="url(#machine)"/>
      <rect x="18" y="18" width="68" height="56" rx="8" fill="#d7e2e9"/>
      <rect x="100" y="28" width="44" height="20" rx="10" fill="#8ea2b0"/>
      <rect x="20" y="120" width="126" height="54" rx="6" fill="#e8eef2"/>
      <rect x="26" y="130" width="114" height="34" rx="5" fill="#b8c6cf"/>
    </g>
  </g>

  <circle cx="600" cy="448" r="18" fill="#9bb2c0"/>
  <rect x="584" y="466" width="32" height="42" rx="8" fill="#a5bac7"/>
</svg>
