<svg width="320" height="320" viewBox="0 0 320 320" fill="none" xmlns="http://www.w3.org/2000/svg">
  <defs>
    <linearGradient id="goldA" x1="0" y1="0" x2="1" y2="1">
      <stop offset="0" stop-color="#8A5A0A"/>
      <stop offset="0.28" stop-color="#EFC86A"/>
      <stop offset="0.52" stop-color="#FFF3BE"/>
      <stop offset="0.78" stop-color="#B87810"/>
      <stop offset="1" stop-color="#7A4C08"/>
    </linearGradient>
    <linearGradient id="redA" x1="0" y1="0" x2="1" y2="1">
      <stop offset="0" stop-color="#B81412"/>
      <stop offset="0.55" stop-color="#FF6E5E"/>
      <stop offset="1" stop-color="#A00E0D"/>
    </linearGradient>
    <filter id="shadow" x="-20%" y="-20%" width="140%" height="140%">
      <feDropShadow dx="0" dy="4" stdDeviation="4" flood-color="#7b4d0a" flood-opacity="0.25"/>
    </filter>
  </defs>
  <g filter="url(#shadow)" transform="translate(24 44)">
    <rect x="30" y="120" width="50" height="34" rx="12" fill="url(#goldA)"/>
    <rect x="12" y="132" width="26" height="18" rx="9" fill="url(#goldA)"/>
    <rect x="52" y="86" width="22" height="42" rx="8" fill="url(#goldA)"/>
    <rect x="36" y="88" width="54" height="8" rx="4" fill="url(#redA)"/>
    <circle cx="63" cy="84" r="10" fill="url(#redA)"/>
    <circle cx="63" cy="84" r="4" fill="#FFC5BC"/>
    <rect x="106" y="134" width="40" height="28" rx="10" fill="url(#goldA)"/>
    <rect x="132" y="102" width="56" height="66" rx="12" fill="url(#goldA)" transform="rotate(-34 132 102)"/>
    <rect x="176" y="118" width="26" height="34" rx="10" fill="url(#goldA)"/>
    <rect x="196" y="126" width="40" height="18" rx="9" fill="url(#goldA)"/>
    <rect x="216" y="150" width="38" height="16" rx="8" fill="url(#goldA)" transform="rotate(-18 216 150)"/>
    <rect x="34" y="170" width="24" height="18" rx="8" fill="url(#goldA)" transform="rotate(-18 34 170)"/>
    <rect x="70" y="176" width="34" height="18" rx="9" fill="url(#goldA)" transform="rotate(12 70 176)"/>
    <circle cx="114" cy="186" r="12" fill="url(#goldA)"/><circle cx="114" cy="186" r="5" fill="#FFF7D4"/>
    <rect x="186" y="176" width="44" height="18" rx="9" fill="url(#goldA)"/>
    <rect x="228" y="170" width="40" height="8" rx="4" fill="url(#redA)"/>
  </g>
</svg>
