<svg width="320" height="320" viewBox="0 0 320 320" fill="none" xmlns="http://www.w3.org/2000/svg">
  <defs>
    <linearGradient id="goldA" x1="0" y1="0" x2="1" y2="1">
      <stop offset="0" stop-color="#8A5A0A"/>
      <stop offset="0.28" stop-color="#EFC86A"/>
      <stop offset="0.52" stop-color="#FFF3BE"/>
      <stop offset="0.78" stop-color="#B87810"/>
      <stop offset="1" stop-color="#7A4C08"/>
    </linearGradient>
    <linearGradient id="goldB" x1="0" y1="0" x2="1" y2="1">
      <stop offset="0" stop-color="#996212"/>
      <stop offset="0.3" stop-color="#DDAE49"/>
      <stop offset="0.55" stop-color="#FFF0B3"/>
      <stop offset="0.8" stop-color="#A7680F"/>
      <stop offset="1" stop-color="#704507"/>
    </linearGradient>
    <filter id="shadow" x="-20%" y="-20%" width="140%" height="140%">
      <feDropShadow dx="0" dy="4" stdDeviation="4" flood-color="#7b4d0a" flood-opacity="0.25"/>
    </filter>
  </defs>
  <g filter="url(#shadow)">
    <g transform="translate(34 56)">
      <rect x="0" y="84" width="34" height="22" rx="10" fill="url(#goldA)" transform="rotate(-22 0 84)"/>
      <rect x="38" y="78" width="76" height="14" rx="7" fill="url(#goldA)" transform="rotate(-18 38 78)"/>
      <rect x="105" y="66" width="42" height="32" rx="10" fill="url(#goldB)" transform="rotate(-14 105 66)"/>
      <rect x="154" y="50" width="70" height="24" rx="12" fill="url(#goldA)" transform="rotate(12 154 50)"/>
      <circle cx="236" cy="48" r="12" fill="url(#goldB)"/>
      <circle cx="236" cy="48" r="5" fill="#FFF6CF"/>
      <rect x="10" y="130" width="22" height="28" rx="8" fill="url(#goldB)"/>
      <circle cx="64" cy="138" r="16" fill="url(#goldA)"/>
      <circle cx="64" cy="138" r="7" fill="#FFF7D4"/>
      <rect x="90" y="124" width="46" height="18" rx="8" fill="url(#goldA)" transform="rotate(20 90 124)"/>
      <rect x="144" y="122" width="76" height="20" rx="10" fill="url(#goldB)" transform="rotate(-18 144 122)"/>
      <rect x="212" y="118" width="30" height="20" rx="8" fill="url(#goldA)" transform="rotate(30 212 118)"/>
      <circle cx="42" cy="182" r="11" fill="url(#goldB)"/>
      <rect x="74" y="174" width="50" height="14" rx="7" fill="url(#goldA)"/>
      <circle cx="140" cy="182" r="14" fill="url(#goldA)"/>
      <circle cx="140" cy="182" r="5" fill="#FFF6CF"/>
      <rect x="166" y="170" width="28" height="22" rx="6" fill="url(#goldB)"/>
      <rect x="204" y="172" width="60" height="14" rx="7" fill="url(#goldA)" transform="rotate(-20 204 172)"/>
      <circle cx="244" cy="162" r="10" fill="url(#goldB)"/>
    </g>
  </g>
</svg>
