<svg width="320" height="320" viewBox="0 0 320 320" fill="none" xmlns="http://www.w3.org/2000/svg">
  <defs>
    <linearGradient id="goldA" x1="0" y1="0" x2="1" y2="1">
      <stop offset="0" stop-color="#8A5A0A"/>
      <stop offset="0.28" stop-color="#EFC86A"/>
      <stop offset="0.52" stop-color="#FFF3BE"/>
      <stop offset="0.78" stop-color="#B87810"/>
      <stop offset="1" stop-color="#7A4C08"/>
    </linearGradient>
    <filter id="shadow" x="-20%" y="-20%" width="140%" height="140%">
      <feDropShadow dx="0" dy="4" stdDeviation="4" flood-color="#7b4d0a" flood-opacity="0.25"/>
    </filter>
  </defs>
  <g filter="url(#shadow)" transform="translate(26 40)">
    <rect x="12" y="44" width="72" height="12" rx="3" fill="url(#goldA)" transform="rotate(-22 12 44)"/>
    <rect x="92" y="28" width="56" height="46" rx="8" fill="url(#goldA)"/>
    <g fill="url(#goldA)">
      <circle cx="122" cy="48" r="2.5"/><circle cx="138" cy="48" r="2.5"/><circle cx="122" cy="62" r="2.5"/><circle cx="138" cy="62" r="2.5"/>
    </g>
    <circle cx="198" cy="48" r="16" fill="url(#goldA)"/>
    <circle cx="198" cy="48" r="6" fill="#FFF7D4"/>
    <rect x="36" y="130" width="46" height="26" rx="6" fill="url(#goldA)" transform="rotate(-24 36 130)"/>
    <rect x="92" y="132" width="42" height="24" rx="6" fill="url(#goldA)"/>
    <rect x="150" y="124" width="88" height="30" rx="8" fill="url(#goldA)" transform="rotate(18 150 124)"/>
    <circle cx="246" cy="144" r="12" fill="url(#goldA)"/>
    <circle cx="246" cy="144" r="4" fill="#FFF7D4"/>
    <rect x="22" y="184" width="34" height="22" rx="4" fill="url(#goldA)"/>
    <g fill="#FFF7D4">
      <circle cx="31" cy="193" r="2"/><circle cx="47" cy="193" r="2"/><circle cx="31" cy="201" r="2"/><circle cx="47" cy="201" r="2"/>
    </g>
    <rect x="70" y="178" width="18" height="14" rx="3" fill="url(#goldA)"/>
    <rect x="96" y="182" width="26" height="20" rx="4" fill="url(#goldA)"/>
    <rect x="128" y="176" width="52" height="20" rx="4" fill="url(#goldA)"/>
    <rect x="188" y="178" width="18" height="18" rx="3" fill="url(#goldA)"/>
    <rect x="214" y="172" width="28" height="22" rx="4" fill="url(#goldA)"/>
  </g>
</svg>
