<svg width="320" height="320" viewBox="0 0 320 320" fill="none" xmlns="http://www.w3.org/2000/svg">
  <defs>
    <linearGradient id="goldA" x1="0" y1="0" x2="1" y2="1">
      <stop offset="0" stop-color="#8A5A0A"/>
      <stop offset="0.28" stop-color="#EFC86A"/>
      <stop offset="0.52" stop-color="#FFF3BE"/>
      <stop offset="0.78" stop-color="#B87810"/>
      <stop offset="1" stop-color="#7A4C08"/>
    </linearGradient>
    <filter id="shadow" x="-20%" y="-20%" width="140%" height="140%">
      <feDropShadow dx="0" dy="4" stdDeviation="4" flood-color="#7b4d0a" flood-opacity="0.25"/>
    </filter>
  </defs>
  <g filter="url(#shadow)" transform="translate(26 44)" fill="url(#goldA)">
    <path d="M8 30H52V48H36V44H24V62H8V30Z"/>
    <path d="M64 24H120V36H108V32H76V58H64V24Z"/>
    <path d="M136 24H176V38H164V34H148V60H136V24Z"/>
    <path d="M184 30H238V44H226V40H196V56H184V30Z"/>
    <rect x="18" y="82" width="34" height="12" rx="3" transform="rotate(-20 18 82)"/>
    <rect x="60" y="78" width="26" height="14" rx="3" transform="rotate(-16 60 78)"/>
    <rect x="98" y="80" width="46" height="12" rx="3" transform="rotate(-18 98 80)"/>
    <rect x="152" y="78" width="34" height="12" rx="3" transform="rotate(-22 152 78)"/>
    <rect x="194" y="80" width="44" height="12" rx="3" transform="rotate(-18 194 80)"/>
    <rect x="24" y="122" width="24" height="14" rx="3" transform="rotate(-18 24 122)"/>
    <rect x="58" y="118" width="44" height="14" rx="3" transform="rotate(-24 58 118)"/>
    <rect x="114" y="120" width="32" height="14" rx="3" transform="rotate(-20 114 120)"/>
    <rect x="160" y="120" width="52" height="14" rx="3" transform="rotate(-18 160 120)"/>
    <rect x="220" y="118" width="24" height="14" rx="3" transform="rotate(-16 220 118)"/>
    <rect x="18" y="170" width="18" height="18" rx="9"/>
    <rect x="56" y="164" width="26" height="14" rx="3"/>
    <rect x="98" y="164" width="40" height="14" rx="3"/>
    <rect x="152" y="166" width="20" height="16" rx="3"/>
    <rect x="188" y="164" width="30" height="14" rx="3"/>
  </g>
</svg>
