<svg width="320" height="380" viewBox="0 0 320 380" fill="none" xmlns="http://www.w3.org/2000/svg">
  <defs>
    <linearGradient id="bgA" x1="0" y1="0" x2="1" y2="1">
      <stop offset="0" stop-color="#49362f"/>
      <stop offset="1" stop-color="#1a2027"/>
    </linearGradient>
    <linearGradient id="skinA" x1="0" y1="0" x2="1" y2="1">
      <stop offset="0" stop-color="#d9a17f"/>
      <stop offset="1" stop-color="#99684b"/>
    </linearGradient>
  </defs>
  <rect width="320" height="380" rx="18" fill="url(#bgA)"/>
  <rect x="14" y="18" width="292" height="84" rx="12" fill="#5f473b"/>
  <g opacity="0.7">
    <circle cx="48" cy="48" r="20" fill="#245640"/>
    <circle cx="74" cy="38" r="16" fill="#6c3d54"/>
    <circle cx="98" cy="56" r="18" fill="#304c7b"/>
    <circle cx="126" cy="42" r="17" fill="#927537"/>
    <circle cx="154" cy="50" r="19" fill="#61415c"/>
    <circle cx="182" cy="39" r="16" fill="#1f644e"/>
    <circle cx="212" cy="52" r="19" fill="#5c5f32"/>
    <circle cx="242" cy="42" r="17" fill="#774431"/>
    <circle cx="270" cy="58" r="18" fill="#38536c"/>
  </g>
  <rect x="188" y="88" width="78" height="86" rx="10" fill="#b5a188"/>
  <circle cx="227" cy="122" r="20" fill="#d9c6aa"/>
  <rect x="218" y="146" width="18" height="18" rx="6" fill="#8f7b60"/>
  <rect x="26" y="190" width="180" height="168" rx="12" fill="#c6b28b"/>
  <rect x="208" y="164" width="82" height="194" rx="10" fill="#1d232c"/>
  <rect x="54" y="210" width="128" height="156" rx="16" fill="#f0d49a"/>
  <rect x="78" y="226" width="20" height="110" rx="8" fill="#d6b870"/>
  <rect x="108" y="226" width="20" height="110" rx="8" fill="#cfb16d"/>
  <rect x="138" y="226" width="20" height="110" rx="8" fill="#d8bf80"/>
  <ellipse cx="124" cy="170" rx="62" ry="74" fill="url(#skinA)"/>
  <path d="M64 164C70 116 97 90 140 90C179 90 205 118 206 156L198 176C179 159 160 151 141 151C117 151 95 159 72 178L64 164Z" fill="#2a2421"/>
  <rect x="95" y="145" width="34" height="26" rx="12" stroke="#18212e" stroke-width="6"/>
  <rect x="131" y="145" width="34" height="26" rx="12" stroke="#18212e" stroke-width="6"/>
  <path d="M129 158H131" stroke="#18212e" stroke-width="5" stroke-linecap="round"/>
  <circle cx="112" cy="158" r="7" fill="#1e1f22"/>
  <circle cx="148" cy="158" r="7" fill="#1e1f22"/>
  <path d="M122 189C130 196 138 196 146 189" stroke="#875a42" stroke-width="4" stroke-linecap="round"/>
  <path d="M110 198C119 212 137 218 154 216" stroke="#3a2b23" stroke-width="6" stroke-linecap="round"/>
  <path d="M96 258C105 233 116 220 130 220C147 220 159 234 166 258L176 380H84L96 258Z" fill="#f2df8f"/>
</svg>
